<svg width="27" height="27" viewBox="0 0 27 27" fill="none" xmlns="http://www.w3.org/2000/svg">
<g clip-path="url(#clip0_155_210)">
<path d="M13.365 10.2825C14.805 10.35 15.1763 11.5763 15.1988 12.15H17.2125C17.1225 9.9225 15.5363 8.56125 13.3313 8.56125C10.845 8.56125 9 10.125 9 13.6575C9 15.84 10.0462 18.4275 13.32 18.4275C15.8175 18.4275 17.1562 16.5712 17.19 15.1088H15.1762C15.1425 15.7725 14.67 16.6613 13.3425 16.7288C11.8687 16.6838 11.25 15.5363 11.25 13.6575C11.25 10.4062 12.69 10.305 13.365 10.2825ZM13.5 2.25C7.29 2.25 2.25 7.29 2.25 13.5C2.25 19.71 7.29 24.75 13.5 24.75C19.71 24.75 24.75 19.71 24.75 13.5C24.75 7.29 19.71 2.25 13.5 2.25ZM13.5 22.5C8.53875 22.5 4.5 18.4613 4.5 13.5C4.5 8.53875 8.53875 4.5 13.5 4.5C18.4613 4.5 22.5 8.53875 22.5 13.5C22.5 18.4613 18.4613 22.5 13.5 22.5Z" fill="white"/>
</g>
<defs>
<clipPath id="clip0_155_210">
<rect width="27" height="27" fill="white"/>
</clipPath>
</defs>
</svg>
