<svg width="66" height="67" viewBox="0 0 66 67" fill="currentColor" xmlns="http://www.w3.org/2000/svg">
<path d="M26.4 48.3889V44.6667H3.333L3.3 59.5556C3.3 63.6872 6.237 67 9.9 67H56.1C59.763 67 62.7 63.6872 62.7 59.5556V44.6667H39.6V48.3889H26.4ZM59.4 14.8889H46.167V7.44444L39.567 0H26.367L19.767 7.44444V14.8889H6.6C2.97 14.8889 0 18.2389 0 22.3333V33.5C0 37.6317 2.937 40.9444 6.6 40.9444H26.4V33.5H39.6V40.9444H59.4C63.03 40.9444 66 37.5944 66 33.5V22.3333C66 18.2389 63.03 14.8889 59.4 14.8889ZM39.6 14.8889H26.4V7.44444H39.6V14.8889Z" />
</svg>
